<svg xmlns="http://www.w3.org/2000/svg" width="24" height="24" viewBox="0 0 24 24" fill="none" stroke="#1E40AF" stroke-width="2" stroke-linecap="round" stroke-linejoin="round">
  <path d="M9.3 6.2a4.55 4.55 0 0 0 5.4 0"/>
  <path d="M7.9 10.7c.9.8 2.4 1.3 4.1 1.3s3.2-.5 4.1-1.3"/>
  <circle cx="12" cy="16.5" r="1.5"/>
  <path d="M2.5 16.5c0-3.1 2.2-5 5.5-5s5.5 2.3 5.5 5.5"/>
  <path d="M16 11.5c3.3 0 5.5 1.9 5.5 5"/>
  <path d="M10.3 9.8a9.4 9.4 0 0 1-3-6.3C8.1 2 9.9 1 12 1c2.1 0 3.9 1 4.7 2.5a9.4 9.4 0 0 1-3 6.3"/>
  <path d="M16.8 15.5a9 9 0 0 1 .8-10.8"/>
  <path d="M7.2 15.5a9 9 0 0 0-.8-10.8"/>
</svg>